HIERARCHY
ROOT root
{
	OFFSET 0.000000 0.000000 0.000000
	CHANNELS 6 Xposition Yposition Zposition Zrotation Yrotation Xrotation
	JOINT lhip
	{
		OFFSET 0.058581 -0.082280 -0.017664
		CHANNELS 3 Zrotation Yrotation Xrotation
		JOINT lknee
		{
			OFFSET 0.043451 -0.386469 0.008037
			CHANNELS 3 Zrotation Yrotation Xrotation
			JOINT lankle
			{
				OFFSET -0.014790 -0.426874 -0.037428
				CHANNELS 3 Zrotation Yrotation Xrotation
				JOINT ltoe
				{
					OFFSET 0.041054 -0.060286 0.122042
					CHANNELS 3 Zrotation Yrotation Xrotation
					End Site
					{
						OFFSET 0.000000 0.000000 0.000000
					}
				}
			}
		}
	}
	JOINT rhip
	{
		OFFSET -0.060310 -0.090513 -0.013543
		CHANNELS 3 Zrotation Yrotation Xrotation
		JOINT rknee
		{
			OFFSET -0.043257 -0.383688 -0.004843
			CHANNELS 3 Zrotation Yrotation Xrotation
			JOINT rankle
			{
				OFFSET 0.019056 -0.420046 -0.034562
				CHANNELS 3 Zrotation Yrotation Xrotation
				JOINT rtoe
				{
					OFFSET -0.034840 -0.062106 0.130323
					CHANNELS 3 Zrotation Yrotation Xrotation
					End Site
					{
						OFFSET 0.000000 0.000000 0.000000
					}
				}
			}
		}
	}
	JOINT lowerback
	{
		OFFSET 0.004439 0.124404 -0.038385
		CHANNELS 3 Zrotation Yrotation Xrotation
		JOINT upperback
		{
			OFFSET 0.004488 0.137956 0.026820
			CHANNELS 3 Zrotation Yrotation Xrotation
			JOINT chest
			{
				OFFSET -0.002265 0.056032 0.002855
				CHANNELS 3 Zrotation Yrotation Xrotation
				JOINT lowerneck
				{
					OFFSET -0.013390 0.211636 -0.033468
					CHANNELS 3 Zrotation Yrotation Xrotation
					JOINT upperneck
					{
						OFFSET 0.010113 0.088937 0.050410
						CHANNELS 3 Zrotation Yrotation Xrotation
						End Site
						{
							OFFSET 0.000000 0.000000 0.000000
						}
					}
				}
				JOINT lclavicle
				{
					OFFSET 0.071702 0.114000 -0.018898
					CHANNELS 3 Zrotation Yrotation Xrotation
					JOINT lshoulder
					{
						OFFSET 0.122921 0.045205 -0.019046
						CHANNELS 3 Zrotation Yrotation Xrotation
						JOINT lelbow
						{
							OFFSET 0.255332 -0.015649 -0.022946
							CHANNELS 3 Zrotation Yrotation Xrotation
							JOINT lwrist
							{
								OFFSET 0.265709 0.012698 -0.007375
								CHANNELS 3 Zrotation Yrotation Xrotation
								End Site
								{
									OFFSET 0.000000 0.000000 0.000000
								}
							}
						}
					}
				}
				JOINT rclavicle
				{
					OFFSET -0.082954 0.112472 -0.023707
					CHANNELS 3 Zrotation Yrotation Xrotation
					JOINT rshoulder
					{
						OFFSET -0.113228 0.046853 -0.008472
						CHANNELS 3 Zrotation Yrotation Xrotation
						JOINT relbow
						{
							OFFSET -0.260127 -0.014369 -0.031269
							CHANNELS 3 Zrotation Yrotation Xrotation
							JOINT rwrist
							{
								OFFSET -0.269108 0.006794 -0.006027
								CHANNELS 3 Zrotation Yrotation Xrotation
								End Site
								{
									OFFSET 0.000000 0.000000 0.000000
								}
							}
						}
					}
				}
			}
		}
	}
}
MOTION
Frames: 7
Frame Time: 0.033333
2.355762 0.652991 0.991379 -87.599374 0.323696 82.247381 -4.108693 1.018347 5.788732 0.888172 -6.436475 1.667199 3.946132 12.236651 -11.436130 0.000000 -0.000000 0.000000 0.511190 -3.254002 -0.673955 -2.482228 -0.608874 12.796080 1.295529 -10.106012 -13.590837 0.000000 -0.000000 0.000000 -0.472631 2.335746 7.209120 -0.415823 -3.599895 11.492898 -2.047288 -0.095716 -3.213986 2.220935 -1.263335 0.986935 5.718532 -3.325023 2.466952 -27.677693 -9.976464 2.056141 -51.498320 -9.839949 14.511967 2.763463 -19.465408 4.632965 -12.001937 -2.960414 7.710723 25.295531 13.126429 2.754835 56.029104 6.209532 20.039115 -2.732724 24.705909 9.934551 7.925159 2.708595 8.857988 
2.357106 0.655357 0.988858 -87.862945 0.067210 82.377929 -4.121979 1.109184 5.262248 0.643890 -6.194524 1.895884 3.612695 12.377659 -10.948684 0.000000 -0.000000 0.000000 0.603358 -1.238206 -1.209288 -2.564636 -1.295247 13.320360 1.201354 -10.795786 -13.372367 0.000000 -0.000000 0.000000 -1.359650 2.376505 8.052998 -0.268912 -2.973249 9.964202 -1.563224 -0.034577 -2.347970 2.403046 -1.306627 1.310310 5.884836 -3.292919 1.301322 -26.457718 -9.096908 1.064759 -51.726533 -9.870604 14.828147 0.009080 -20.492152 5.975818 -10.705512 -2.322118 7.476556 24.902205 12.876521 2.342977 56.495103 6.219329 20.265706 -2.465607 24.704769 9.800526 6.792349 2.762037 8.652008 
2.357788 0.657057 0.987312 -87.978703 -0.168080 82.322941 -4.305826 1.106518 5.240218 0.595101 -6.189635 1.888413 3.337493 12.411101 -10.544701 0.000000 -0.000000 0.000000 0.537923 -0.174090 -1.344927 -2.676208 -1.790423 13.615735 1.114102 -11.175435 -13.315347 0.000000 -0.000000 0.000000 -1.748790 2.063699 8.493962 -0.281724 -2.479626 9.381141 -1.398262 -0.040445 -1.788705 2.370056 -1.199984 1.157986 5.803642 -3.240674 0.990762 -26.627155 -9.376963 1.475845 -51.723565 -9.845000 14.527136 0.551329 -20.760387 5.696194 -10.727985 -2.519670 7.251744 24.951794 13.058011 2.511964 56.605429 6.533486 20.111523 -2.714429 24.738885 9.852033 6.541983 2.706642 8.607038 
2.357049 0.657375 0.987306 -87.600255 -0.110424 82.322705 -4.202680 1.028390 5.193959 0.535709 -6.347148 2.021067 3.170119 12.229869 -10.685857 0.000000 -0.000000 0.000000 0.565422 -0.348362 -1.146214 -2.706499 -1.968958 13.445677 1.166885 -11.243064 -13.257259 0.000000 -0.000000 0.000000 -1.886105 2.117697 7.949786 -0.106751 -2.779989 10.368150 -1.311757 -0.056210 -1.956027 2.340533 -1.010427 1.418056 6.025585 -3.480010 -0.189372 -26.468152 -9.473338 1.426092 -51.935830 -9.802479 14.449292 0.501285 -20.620989 5.520053 -11.573985 -2.455660 7.607451 25.085033 13.254682 2.603639 56.375325 6.558684 19.801882 -2.824330 24.770364 9.684826 6.902602 2.701401 9.119340 
2.357001 0.657617 0.987175 -87.592936 -0.139862 82.272905 -4.221288 1.131907 5.247696 0.610100 -6.305714 1.969799 3.144113 12.153854 -10.695219 0.000000 -0.000000 0.000000 0.546065 -0.362391 -1.102036 -2.758804 -2.071685 13.453844 1.179477 -11.047711 -13.311503 0.000000 -0.000000 0.000000 -1.931936 2.156701 7.936466 -0.120213 -2.722267 10.814911 -1.325917 -0.169328 -2.134969 2.411805 -0.680509 1.641703 6.210071 -3.344082 -1.110873 -26.563970 -9.524236 1.443773 -51.753536 -9.804210 14.296214 0.853667 -21.392032 5.062454 -9.522789 -3.289600 8.157873 25.124794 13.324923 2.547898 56.340161 6.607670 19.616918 -2.591743 24.739111 9.599645 5.891024 3.125036 9.424399 
2.356615 0.657526 0.987274 -87.368024 -0.091131 82.258447 -4.098544 1.110520 5.200345 0.466005 -6.445602 2.104116 3.030129 11.974412 -10.624880 0.000000 -0.000000 0.000000 0.560637 -0.495191 -0.970789 -2.711575 -2.100021 13.339638 1.156696 -11.126275 -13.164883 0.000000 -0.000000 0.000000 -1.945878 2.196715 7.781823 -0.024690 -2.920092 11.065335 -1.218148 -0.203932 -2.088911 2.360318 -0.660401 1.450845 6.259015 -3.499705 -1.509349 -26.543524 -9.713200 1.574381 -51.848776 -9.762533 14.235689 0.663338 -20.861903 5.160901 -11.172301 -2.498568 7.863290 25.256130 13.407919 2.645164 56.107464 6.604007 19.453526 -2.856806 24.850769 9.473180 6.693105 2.772401 9.411459 
2.357144 0.657378 0.987054 -87.599284 -0.184222 82.067955 -4.219660 1.176092 5.341436 0.481012 -6.335462 2.179442 3.238970 12.116842 -10.749180 0.000000 -0.000000 0.000000 0.502298 -0.209828 -0.969131 -2.751674 -2.141265 13.636023 1.110991 -11.144490 -13.298241 0.000000 -0.000000 0.000000 -1.889727 2.179029 8.282091 -0.121236 -2.697038 10.928388 -1.279701 -0.167264 -1.963102 2.283206 -0.476317 1.021495 6.274317 -3.536376 -1.750021 -26.596752 -9.981462 1.601371 -51.719513 -9.722328 14.206109 0.802240 -21.140567 4.920941 -10.672890 -2.641559 7.634574 25.321536 13.658431 2.637554 56.024232 6.732340 19.420648 -3.029177 24.975515 8.880067 6.569644 2.661640 8.733155 
